# xmcd
#
# Track frame offsets:
#	150
#	16995
#	34592
#	46062
#	60075
#	79487
#	98147
#	112357
#	127765
#	140740
#	155605
#
# Disc length: 2323 seconds
#
# Revision: 51
# Processed by: cddbd v1.5.1PL2 Copyright (c) Steve Scherf et al.
# Submitted via: audiograbber 1.83.01
#
DISCID=8a09110b
DTITLE=Garth Brooks - No fences
DYEAR=1990
DGENRE=Country
TTITLE0=The Thunder Rolls
TTITLE1=New Way to fly
TTITLE2=Two of a kind, workin' on a full house
TTITLE3=Victim of the game
TTITLE4=Friends in low places
TTITLE5=This ain't Tennessee
TTITLE6=Wild horses
TTITLE7=Unanswered prayers
TTITLE8=Same old story
TTITLE9=Mr. Blue
TTITLE10=Wolves
EXTD=YEAR: 2001
EXTT0=
EXTT1=
EXTT2=
EXTT3=
EXTT4=
EXTT5=
EXTT6=
EXTT7=
EXTT8=
EXTT9=
EXTT10=
PLAYORDER=
